<svg class="cart-icon" version="1.1" xmlns="http://www.w3.org/2000/svg" xmlns:xlink="http://www.w3.org/1999/xlink" x="0px" y="0px" viewBox="0 0 44 41" style="enable-background:new 0 0 44 41;" xml:space="preserve">
	<title>cart</title>
	<style type="text/css">
		.cart0{fill-rule:evenodd;clip-rule:evenodd;fill:#000;stroke:transparent;stroke-width:0;}
		.cart1{fill-rule:evenodd;clip-rule:evenodd;fill:#FFC69F;}
		.c{font-family:Fort-Medium, Fort;font-weight:400;font-size:18px;fill:#000!important;text-anchor:middle;}
	</style>
	<path class="cart0" d="M20.8,35.6c-1.4,0-2.6,1.2-2.6,2.6s1.2,2.6,2.6,2.6s2.6-1.2,2.6-2.6S22.3,35.6,20.8,35.6 M7.8,35.6
	c-1.4,0-2.6,1.2-2.6,2.6s1.2,2.6,2.6,2.6s2.6-1.2,2.6-2.6S9.2,35.6,7.8,35.6 M18.9,17.4H5.5l-0.7-1.8c-0.2-0.5-0.7-0.8-1.2-0.8H1.3
	c-0.7,0-1.3,0.6-1.3,1.3c0,0.7,0.6,1.3,1.3,1.3l0,0h1.4L7,27.7l-1.6,2.5c-1.1,1.7,0.2,4.1,2.3,4.1h14.4c0.7,0,1.3-0.6,1.3-1.3
	s-0.6-1.3-1.3-1.3l0,0H7.7c-0.1,0-0.2,0-0.1-0.2l0,0l1.5-2.4h9.7c0.9,0,1.8-0.5,2.3-1.3l2.6-4.6C23.7,23.1,20.5,21.1,18.9,17.4"></path>
	<g class="cart-counter">
		<path class="cart1" d="M43.4,12.1c0,6.6-5.4,12-12,12s-12-5.4-12-12s5.4-12,12-12S43.4,5.5,43.4,12.1"></path>
	<text x="32" y="18" class="c">0</text></g>
</svg>