<?xml version="1.0" encoding="UTF-8"?>
<svg width="19px" height="19px" viewBox="0 0 19 19" version="1.1" xmlns="http://www.w3.org/2000/svg" xmlns:xlink="http://www.w3.org/1999/xlink">
    <title>search</title>
    <g stroke="none" stroke-width="1" fill="none" fill-rule="evenodd">
        <g transform="translate(-1299.000000, -74.000000)" fill="#000000">
            <path d="M1301.39023,82.3649642 C1301.35796,79.0979768 1303.97968,76.4224886 1307.24666,76.390225 C1307.28729,76.390225 1307.32553,76.390225 1307.36496,76.390225 C1310.63195,76.3579614 1313.30744,78.979677 1313.3397,82.2466644 L1313.3397,82.3649642 C1313.37197,85.6319516 1310.75025,88.3074398 1307.48326,88.3397034 L1307.36496,88.3397034 C1304.09798,88.371967 1301.42249,85.7502514 1301.39023,82.4832641 C1301.39023,82.4426358 1301.39023,82.4043975 1301.39023,82.3649642 L1301.39023,82.3649642 Z M1318,91.327073 L1314.05667,87.3837451 C1315.15483,85.9426381 1315.74394,84.1777001 1315.7296,82.3649642 C1315.75708,77.7739746 1312.05991,74.0290081 1307.46773,74.0001637 L1307.36496,74.0001637 C1302.77397,73.9716506 1299.02901,77.6712091 1299.00016,82.2621987 L1299.00016,82.3649642 C1298.97165,86.9559538 1302.67121,90.7021153 1307.2622,90.7295991 L1307.36496,90.7295991 C1309.1777,90.7439385 1310.94264,90.1548292 1312.38375,89.0566721 L1316.32707,93 L1318,91.327073 Z"></path>
        </g>
    </g>
</svg>